Coordinates
version=1
nRows=34
nColumns=38
inDegrees=no

Units are S.I. units (second, meters, Newtons, ...)
If the header above contains a line with 'inDegrees', this indicates whether rotational values are in degrees (yes) or radians (no).

endheader
time	pelvis_tilt	pelvis_list	pelvis_rotation	pelvis_tx	pelvis_ty	pelvis_tz	hip_flexion_r	hip_adduction_r	hip_rotation_r	knee_angle_r	ankle_angle_r	subtalar_angle_r	mtp_angle_r	hip_flexion_l	hip_adduction_l	hip_rotation_l	knee_angle_l	ankle_angle_l	subtalar_angle_l	mtp_angle_l	lumbar_extension	lumbar_bending	lumbar_rotation	arm_flex_r	arm_add_r	arm_rot_r	elbow_flex_r	pro_sup_r	wrist_flex_r	wrist_dev_r	arm_flex_l	arm_add_l	arm_rot_l	elbow_flex_l	pro_sup_l	wrist_flex_l	wrist_dev_l
1.62	2.49962	1.49558	-0.857885	0.636446	0.753229	0.93489	-0.244568	0.0844381	-0.224256	0.206752	-0.150476	0	0	0.320977	-0.0525597	-0.0890273	0.322437	-0.241114	0	0	-0.160356	0.0666878	-0.0523545	0.119121	-0.277253	0.226969	0.923182	1.5708	0	0	-0.222981	-0.243654	0.087676	0.757878	1.5708	0	0
1.63	2.43966	1.49582	-0.794242	0.635514	0.762586	0.932823	-0.250117	0.0874226	-0.231439	0.213611	-0.144746	0	0	0.313931	-0.0494418	-0.0882438	0.258509	-0.248394	0	0	-0.157632	0.0708793	-0.0541166	0.120081	-0.277278	0.225285	0.928312	1.5708	0	0	-0.223921	-0.241891	0.0860804	0.757388	1.5708	0	0
1.64	2.38686	1.49613	-0.738195	0.634527	0.772036	0.930813	-0.253458	0.0888626	-0.240147	0.225858	-0.137975	0	0	0.306557	-0.0456397	-0.0848055	0.201374	-0.253344	0	0	-0.155095	0.0743063	-0.0557076	0.121221	-0.277707	0.224921	0.932251	1.5708	0	0	-0.224548	-0.239871	0.0842664	0.756531	1.5708	0	0
1.65	2.34262	1.49656	-0.69174	0.633597	0.78159	0.928916	-0.254549	0.0885475	-0.249408	0.24397	-0.130316	0	0	0.298763	-0.0417883	-0.079752	0.152404	-0.258331	0	0	-0.152904	0.076632	-0.0566153	0.122254	-0.277666	0.225096	0.934566	1.5708	0	0	-0.225051	-0.238269	0.0835132	0.755459	1.5708	0	0
1.66	2.31412	1.49712	-0.662295	0.632729	0.791156	0.927193	-0.252843	0.085471	-0.26139	0.271172	-0.117061	0	0	0.291232	-0.037787	-0.0750112	0.115793	-0.266618	0	0	-0.150474	0.077505	-0.0642098	0.13543	-0.283946	0.257083	0.927794	1.54708	0	0	-0.230912	-0.234797	0.0734351	0.755806	1.5708	0	0
1.67	2.29584	1.4971	-0.644277	0.632013	0.80078	0.925776	-0.254424	0.0830445	-0.265219	0.290958	-0.114193	0	0	0.287426	-0.0352469	-0.0751032	0.102864	-0.268005	0	0	-0.151057	0.0780132	-0.0610824	0.132694	-0.278751	0.244421	0.928487	1.56286	0	0	-0.2289	-0.234383	0.0766439	0.753537	1.5708	0	0
1.68	2.28962	1.49774	-0.63876	0.63141	0.810483	0.924544	-0.252893	0.0779706	-0.272946	0.320146	-0.10812	0	0	0.286573	-0.0323269	-0.0756311	0.108435	-0.270448	0	0	-0.15204	0.0769006	-0.0568858	0.128956	-0.27328	0.231316	0.928533	1.5708	0	0	-0.226466	-0.234589	0.0806286	0.751456	1.5708	0	0
1.69	2.28921	1.49869	-0.639536	0.630817	0.820319	0.923479	-0.251582	0.0721305	-0.278177	0.349142	-0.102968	0	0	0.287729	-0.029364	-0.0746566	0.129392	-0.269981	0	0	-0.152752	0.075091	-0.0524305	0.12596	-0.270377	0.224521	0.927607	1.5708	0	0	-0.224067	-0.235099	0.0852086	0.749157	1.5708	0	0
1.7	2.29829	1.49988	-0.650286	0.630142	0.830364	0.922593	-0.251405	0.0655391	-0.280201	0.37616	-0.100179	0	0	0.288041	-0.0256975	-0.0708797	0.157217	-0.265349	0	0	-0.153235	0.0727267	-0.0483741	0.12261	-0.267516	0.219303	0.925346	1.5708	0	0	-0.221902	-0.236094	0.0909018	0.746525	1.5708	0	0
1.71	2.32448	1.50133	-0.678789	0.629396	0.840739	0.921927	-0.252764	0.0581463	-0.279855	0.401205	-0.0999664	0	0	0.285325	-0.0207679	-0.0662959	0.183556	-0.256251	0	0	-0.153699	0.0692646	-0.0439436	0.118123	-0.265007	0.21487	0.922407	1.5708	0	0	-0.220287	-0.236995	0.0966664	0.743792	1.5708	0	0
1.72	2.34852	1.5049	-0.705604	0.628603	0.851482	0.921314	-0.250094	0.04778	-0.281692	0.433607	-0.0988849	0	0	0.282391	-0.0137828	-0.061498	0.202417	-0.248158	0	0	-0.151202	0.064137	-0.0340215	0.106517	-0.263063	0.202077	0.922661	1.5708	0	0	-0.214795	-0.240619	0.11381	0.73812	1.5708	0	0
1.73	2.41983	1.50604	-0.77948	0.627832	0.862413	0.921284	-0.255296	0.0394859	-0.275869	0.453889	-0.105617	0	0	0.273353	-0.00639071	-0.0567122	0.208995	-0.251043	0	0	-0.152661	0.0581931	-0.0346988	0.106223	-0.26067	0.208504	0.913207	1.5708	0	0	-0.218743	-0.239235	0.108042	0.738409	1.5708	0	0
1.74	2.47408	1.50986	-0.836469	0.627053	0.873556	0.921307	-0.255023	0.0293786	-0.269846	0.479689	-0.111743	0	0	0.266834	0.00176441	-0.053879	0.209448	-0.264388	0	0	-0.149979	0.0508738	-0.0300813	0.09858	-0.257364	0.204495	0.906344	1.5708	0	0	-0.218221	-0.240445	0.113413	0.735245	1.5708	0	0
1.75	2.49307	1.51748	-0.858337	0.626249	0.884915	0.921279	-0.248069	0.0182013	-0.261474	0.509526	-0.120618	0	0	0.263536	0.0100237	-0.0522263	0.205963	-0.288962	0	0	-0.140627	0.0426167	-0.0238583	0.0877807	-0.252195	0.195929	0.896919	1.5708	0	0	-0.216093	-0.242234	0.123151	0.72844	1.5708	0	0
1.76	2.51646	1.524	-0.88377	0.625318	0.89638	0.921464	-0.242549	0.00864287	-0.249213	0.536539	-0.131175	0	0	0.259303	0.0167357	-0.0517739	0.205874	-0.303511	0	0	-0.1324	0.0351617	-0.0226602	0.0807506	-0.248671	0.197158	0.885193	1.5708	0	0	-0.218349	-0.24186	0.123192	0.725138	1.5708	0	0
1.77	2.53437	1.52924	-0.903324	0.624194	0.907899	0.921755	-0.236875	4.54033e-05	-0.233772	0.564878	-0.14235	0	0	0.254803	0.0217778	-0.0512736	0.209477	-0.311042	0	0	-0.124925	0.0294827	-0.0231052	0.0743477	-0.24796	0.204128	0.874536	1.5708	0	0	-0.222009	-0.240846	0.121514	0.723805	1.5708	0	0
1.78	2.40658	1.53894	-0.777175	0.622953	0.919511	0.921616	-0.219872	-0.00901306	-0.213899	0.603911	-0.153865	0	0	0.260433	0.0249936	-0.0496921	0.222072	-0.312322	0	0	-0.109086	0.0252822	-0.0114075	0.0522593	-0.243464	0.180312	0.872818	1.5708	0	0	-0.216169	-0.24271	0.139319	0.715812	1.5708	0	0
1.79	2.25198	1.54578	-0.62381	0.621673	0.930978	0.921886	-0.205748	-0.0168341	-0.18512	0.641388	-0.167399	0	0	0.263865	0.0270073	-0.0476316	0.237036	-0.313638	0	0	-0.0963726	0.0216643	-0.00955944	0.0412972	-0.242089	0.18005	0.863465	1.5708	0	0	-0.217457	-0.241305	0.141111	0.712594	1.5708	0	0
1.8	2.06376	1.55139	-0.435766	0.620289	0.942389	0.922561	-0.190801	-0.0253536	-0.15886	0.680188	-0.187287	0	0	0.264496	0.0297692	-0.0438507	0.249313	-0.317312	0	0	-0.0849823	0.0177022	-0.00892284	0.0310124	-0.24031	0.180436	0.852472	1.5708	0	0	-0.217815	-0.240548	0.144762	0.708899	1.5708	0	0
1.81	1.94215	1.5557	-0.31243	0.618741	0.953768	0.923678	-0.176076	-0.0352541	-0.143791	0.721047	-0.213836	0	0	0.259464	0.0339269	-0.0377483	0.256054	-0.322274	0	0	-0.0769475	0.0132931	-0.0107104	0.0215239	-0.238213	0.181659	0.840855	1.5708	0	0	-0.217683	-0.240596	0.149618	0.706058	1.5708	0	0
1.82	1.88435	1.55963	-0.252347	0.617178	0.964964	0.924986	-0.159848	-0.0460997	-0.134101	0.764115	-0.245335	0	0	0.251019	0.0386139	-0.031813	0.259537	-0.325245	0	0	-0.071456	0.00865912	-0.0138041	0.0128677	-0.236564	0.184455	0.830167	1.5708	0	0	-0.217432	-0.241299	0.154807	0.705073	1.5708	0	0
1.83	1.81837	1.5637	-0.183884	0.615553	0.975947	0.926236	-0.140592	-0.0580789	-0.128069	0.809246	-0.28239	0	0	0.241662	0.0437381	-0.0275355	0.262188	-0.323814	0	0	-0.0667214	0.00404184	-0.0177357	0.00480875	-0.236341	0.18957	0.821028	1.5708	0	0	-0.217274	-0.242523	0.160567	0.70609	1.5708	0	0
1.84	1.7053	1.56798	-0.0678625	0.613826	0.986741	0.927379	-0.119915	-0.0704577	-0.123729	0.853096	-0.324336	0	0	0.231698	0.0494329	-0.0248184	0.264611	-0.318964	0	0	-0.0626044	-0.000631367	-0.022771	-0.00293605	-0.236903	0.195951	0.813421	1.5708	0	0	-0.217193	-0.244335	0.167127	0.709218	1.5708	0	0
1.85	-1.16337	1.56898	2.80374	0.612094	0.997347	0.928418	-0.0969453	-0.084052	-0.121791	0.897699	-0.372574	0	0	0.221273	0.0553941	-0.0243701	0.266842	-0.313245	0	0	-0.0591029	-0.00557769	-0.0285475	-0.00951653	-0.238872	0.205614	0.806671	1.5708	0	0	-0.2172	-0.246788	0.174037	0.714244	1.5708	0	0
1.86	-1.30971	1.56435	2.95279	0.610347	1.00773	0.92934	-0.0718566	-0.0987244	-0.122451	0.944162	-0.418755	0	0	0.210736	0.0613127	-0.0267961	0.269333	-0.306816	0	0	-0.0565882	-0.010411	-0.0349601	-0.0153163	-0.241612	0.216565	0.801467	1.5708	0	0	-0.217106	-0.249	0.179211	0.720964	1.5708	0	0
1.87	-1.41551	1.56011	3.0607	0.608678	1.01784	0.93023	-0.0466632	-0.112724	-0.122649	0.991179	-0.454741	0	0	0.199184	0.066632	-0.0316634	0.271979	-0.300013	0	0	-0.0558556	-0.0146827	-0.0415308	-0.020322	-0.24446	0.227106	0.797705	1.5708	0	0	-0.216579	-0.251002	0.183117	0.728945	1.5708	0	0
1.88	-1.55402	1.55647	-3.08301	0.607147	1.02771	0.931105	-0.0215277	-0.126106	-0.122517	1.03897	-0.481304	0	0	0.185693	0.0710255	-0.0373923	0.273706	-0.293944	0	0	-0.057964	-0.0170137	-0.0503039	-0.0247712	-0.247403	0.237997	0.794264	1.5708	0	0	-0.216244	-0.252852	0.185859	0.737536	1.5708	0	0
1.89	-1.56328	1.55404	-3.07128	0.605668	1.03738	0.932011	0.00574217	-0.137313	-0.122916	1.08474	-0.517394	0	0	0.174464	0.0737982	-0.0444131	0.27676	-0.285609	0	0	-0.0573678	-0.019681	-0.0471385	-0.0359171	-0.250488	0.233192	0.798541	1.5708	0	0	-0.205553	-0.258634	0.207137	0.741824	1.5708	0	0
1.9	-1.62017	1.55221	-3.01318	0.604354	1.04675	0.933006	0.0331525	-0.147233	-0.121669	1.12864	-0.545459	0	0	0.161651	0.0752729	-0.0530836	0.277178	-0.280806	0	0	-0.0591427	-0.0207722	-0.0514847	-0.0402378	-0.253677	0.238691	0.797442	1.5708	0	0	-0.199192	-0.261495	0.216002	0.747501	1.5708	0	0
1.91	-1.75778	1.5509	-2.87542	0.603309	1.05593	0.934278	0.0591582	-0.154917	-0.118919	1.16998	-0.561034	0	0	0.145353	0.0756245	-0.0582056	0.273128	-0.278202	0	0	-0.0631341	-0.0207007	-0.0552825	-0.0435247	-0.255633	0.241508	0.795759	1.5708	0	0	-0.191277	-0.263512	0.223619	0.751533	1.5708	0	0
1.92	-1.94714	1.54944	-2.68748	0.602533	1.06494	0.935762	0.0837627	-0.160441	-0.114344	1.20772	-0.565312	0	0	0.126106	0.0751497	-0.0601844	0.265536	-0.276148	0	0	-0.0691978	-0.019993	-0.0619639	-0.0420824	-0.256939	0.248489	0.791385	1.5708	0	0	-0.186395	-0.263125	0.220501	0.757172	1.5708	0	0
1.93	-2.05507	1.54919	-2.58185	0.601893	1.07383	0.937158	0.110619	-0.16408	-0.107384	1.24225	-0.554516	0	0	0.109152	0.0733009	-0.0641836	0.258009	-0.274654	0	0	-0.0725745	-0.0180539	-0.0643803	-0.0432405	-0.259392	0.25191	0.788892	1.5708	0	0	-0.176827	-0.264749	0.227666	0.759096	1.5708	0	0
1.94	-2.0991	1.55055	-2.53983	0.601253	1.08254	0.938365	0.139589	-0.166328	-0.100113	1.27497	-0.518699	0	0	0.0962737	0.0700484	-0.073015	0.254623	-0.271881	0	0	-0.0732492	-0.0147217	-0.0601328	-0.0516971	-0.261681	0.242561	0.791906	1.5708	0	0	-0.159303	-0.269189	0.251629	0.755848	1.5708	0	0
1.95	-2.32742	1.55106	-2.31099	0.60039	1.091	0.939858	0.163144	-0.166674	-0.0966094	1.29908	-0.507952	0	0	0.0806779	0.065337	-0.0781573	0.252142	-0.269995	0	0	-0.0784792	-0.00982786	-0.0724016	-0.0456905	-0.264389	0.253882	0.786461	1.5708	0	0	-0.154871	-0.267626	0.243686	0.760815	1.5708	0	0
